<svg width="50" height="50" viewBox="0 0 50 50" fill="none" xmlns="http://www.w3.org/2000/svg">
<path d="M0 4.16667C0 3.0616 0.329241 2.00179 0.915292 1.22039C1.50134 0.438988 2.2962 0 3.125 0H46.875C47.7038 0 48.4987 0.438988 49.0847 1.22039C49.6708 2.00179 50 3.0616 50 4.16667C50 5.27174 49.6708 6.33154 49.0847 7.11294C48.4987 7.89435 47.7038 8.33333 46.875 8.33333H3.125C2.2962 8.33333 1.50134 7.89435 0.915292 7.11294C0.329241 6.33154 0 5.27174 0 4.16667ZM0 25C0 23.8949 0.329241 22.8351 0.915292 22.0537C1.50134 21.2723 2.2962 20.8333 3.125 20.8333H46.875C47.7038 20.8333 48.4987 21.2723 49.0847 22.0537C49.6708 22.8351 50 23.8949 50 25C50 26.1051 49.6708 27.1649 49.0847 27.9463C48.4987 28.7277 47.7038 29.1667 46.875 29.1667H3.125C2.2962 29.1667 1.50134 28.7277 0.915292 27.9463C0.329241 27.1649 0 26.1051 0 25ZM0 45.8333C0 44.7283 0.329241 43.6685 0.915292 42.8871C1.50134 42.1056 2.2962 41.6667 3.125 41.6667H46.875C47.7038 41.6667 48.4987 42.1056 49.0847 42.8871C49.6708 43.6685 50 44.7283 50 45.8333C50 46.9384 49.6708 47.9982 49.0847 48.7796C48.4987 49.561 47.7038 50 46.875 50H3.125C2.2962 50 1.50134 49.561 0.915292 48.7796C0.329241 47.9982 0 46.9384 0 45.8333Z" fill="#0D0D0D"/>
</svg>
